<svg width="574" height="156" viewBox="0 0 574 156" fill="none" xmlns="http://www.w3.org/2000/svg">
<path d="M18.0264 100.492C26.332 100.492 33.1304 95.5396 33.1304 87.3262C33.1304 72.8989 12.0894 75.6675 12.0894 67.4849C12.0894 64.7163 14.4888 62.8398 17.5649 62.8398C20.4873 62.8398 23.0713 64.5317 24.5786 67.4849L31.0693 63.5166C28.0854 58.2256 23.1943 55.8877 17.8418 55.8877C10.5205 55.8877 4.27588 60.1943 4.27588 67.8848C4.27588 82.0352 25.3169 79.0205 25.3169 88.0337C25.3169 91.1099 22.7944 93.5708 18.1494 93.5708C13.5352 93.5708 9.68994 91.1714 9.13623 85.7573L1.38428 87.7261C2.76855 96.2778 10.3359 100.492 18.0264 100.492ZM74.1973 56.5337L62.6616 87.4492L51.126 56.5337H40.6055V100H48.1113V67.5464L58.8779 96.2163H66.4453L77.2119 67.5464V100H84.7178V56.5337H74.1973ZM90.6855 100H99.2065L102.713 90.5562H119.355L122.832 100H131.26L113.941 56.5337H108.097L90.6855 100ZM105.174 83.8809L111.05 68.0078L116.895 83.8809H105.174ZM137.259 100H145.072V81.4199H147.779H150.302L161.007 100H169.958L157.869 80.6509C162.791 78.959 166.359 74.8062 166.359 69.3306C166.359 61.1787 159.438 56.5337 151.317 56.5337H137.259V100ZM145.134 75.0522V63.5166H151.378C155.839 63.5166 158.638 65.8545 158.638 69.4536C158.638 72.7144 156.177 74.8677 152.024 75.0522H145.134ZM184.909 100H192.722V63.5166H206.319V56.5337H171.281V63.5166H184.909V100ZM235.973 100H243.51L252.954 71.3916L262.428 100H269.965L283.008 56.5337H274.887L265.627 88.5259L255.999 59.0562H249.939L240.311 88.5259L231.051 56.5337H222.93L235.973 100ZM289.406 100H318.322V92.6172H297.22V81.8506H316.876V74.6831H297.22V63.7012H318.322V56.5337H289.406V100ZM322.506 100H331.027L334.534 90.5562H351.176L354.652 100H363.081L345.762 56.5337H339.917L322.506 100ZM336.995 83.8809L342.87 68.0078L348.715 83.8809H336.995ZM369.079 100H376.893V81.4199H379.6H382.122L392.827 100H401.779L389.689 80.6509C394.611 78.959 398.18 74.8062 398.18 69.3306C398.18 61.1787 391.258 56.5337 383.137 56.5337H369.079V100ZM376.954 75.0522V63.5166H383.199C387.659 63.5166 390.458 65.8545 390.458 69.4536C390.458 72.7144 387.998 74.8677 383.845 75.0522H376.954ZM402.732 100H411.253L414.76 90.5562H431.402L434.878 100H443.307L425.988 56.5337H420.144L402.732 100ZM417.221 83.8809L423.097 68.0078L428.941 83.8809H417.221ZM449.306 100H466.255C473.638 100 480.437 95.478 480.437 87.3877C480.437 83.0503 477.422 78.313 473.454 76.7441C475.915 75.4214 478.283 72.2222 478.283 68.2539C478.283 59.5483 470.993 56.5337 464.379 56.5337H449.306V100ZM457.119 74.0371V63.5781H464.502C468.224 63.5781 471.116 65.3008 471.116 68.6846C471.116 72.9604 468.163 74.0371 465.117 74.0371H457.119ZM457.119 92.5557V80.7739H466.071C470.162 80.7739 472.746 83.4194 472.746 86.5264C472.746 90.6177 470.408 92.5557 466.378 92.5557H457.119ZM488.496 100H514.89V92.6172H496.31V56.5337H488.496V100ZM521.227 100H550.143V92.6172H529.04V81.8506H548.697V74.6831H529.04V63.7012H550.143V56.5337H521.227V100ZM560.14 100H567.677V91.8789H560.14V100Z" fill="white"/>
<path d="M2.87109 24H10.5469C14.1797 24 17.2412 21.8906 17.2412 18.0967C17.2412 15.8555 15.7764 13.6582 13.7549 12.9697C15.0586 12.3398 16.2305 10.7578 16.2305 8.79492C16.2305 4.7959 12.9932 3.30176 9.74121 3.30176H2.87109V24ZM6.02051 11.8857V6.14355H9.7998C11.8799 6.14355 13.3301 7.0957 13.3301 8.9707C13.3301 11.124 11.8359 11.8857 10.1953 11.8857H6.02051ZM6.02051 20.9971V14.6104H10.6641C12.8174 14.6104 14.1504 15.9727 14.1504 17.7451C14.1504 19.9277 12.876 20.9971 10.5908 20.9971H6.02051ZM27.0703 24.2783C29.4873 24.2783 31.333 23.458 32.9443 21.7002L30.8643 19.8691C29.7363 21.085 28.5498 21.5244 27.085 21.5244C24.5654 21.5244 23.3057 20.001 23.042 17.6279H33.3398C33.3984 17.4229 33.457 16.8223 33.457 16.2656C33.457 13.1162 31.8457 9.08789 26.8213 9.08789C22.1045 9.08789 19.8486 12.8232 19.8486 16.749C19.8486 20.7627 22.2363 24.2783 27.0703 24.2783ZM23.042 15.4307C23.3496 13.2334 24.5068 11.6367 26.792 11.6367C28.8135 11.6367 30.0879 12.8525 30.3809 14.5078C30.4541 14.8008 30.4834 15.1084 30.4688 15.4307H23.042ZM41.1914 24.2783C43.9893 24.2783 46.7285 22.7842 46.7285 19.5469C46.7285 14.0977 38.9209 15.7529 38.9209 13.0723C38.9209 12.1641 39.7998 11.4902 41.2061 11.4902C42.8613 11.4902 43.8135 12.457 44.3848 13.4971L46.7285 12.2227C45.6445 10.2598 43.7549 9.08789 41.3086 9.08789C38.4961 9.08789 36.0205 10.5381 36.0205 13.4678C36.0205 18.668 43.7549 16.7344 43.7549 19.6934C43.7549 20.7188 42.876 21.7441 41.0449 21.7441C38.9941 21.7441 37.9834 20.3965 37.5439 19.1807L35.1123 20.25C35.8447 22.4912 38.1738 24.2783 41.1914 24.2783ZM55.1514 24.2783C56.1328 24.2783 57.0996 24.0586 57.6123 23.8682L57.5977 21.1289C57.1436 21.334 56.3965 21.5977 55.6787 21.5977C54.5361 21.5977 53.8037 21.041 53.8037 19.415V11.915H57.6123V9.36621H53.8037V3.36035L50.8301 5.52832V9.36621H48.3838V11.915H50.7861V19.9277C50.7861 22.6377 52.3828 24.2783 55.1514 24.2783ZM68.9941 24H74.8242C81.7383 24 85.5615 20.2646 85.5615 13.8047C85.5615 7.08105 81.8408 3.30176 74.8535 3.30176H68.9941V24ZM72.1436 21.0996V6.20215H74.8096C80.1416 6.20215 82.4121 8.47266 82.4121 13.6729C82.4121 19.0342 79.4092 21.0996 74.5312 21.0996H72.1436ZM95.3613 24.2783C97.7783 24.2783 99.624 23.458 101.235 21.7002L99.1553 19.8691C98.0273 21.085 96.8408 21.5244 95.376 21.5244C92.8564 21.5244 91.5967 20.001 91.333 17.6279H101.631C101.689 17.4229 101.748 16.8223 101.748 16.2656C101.748 13.1162 100.137 9.08789 95.1123 9.08789C90.3955 9.08789 88.1396 12.8232 88.1396 16.749C88.1396 20.7627 90.5273 24.2783 95.3613 24.2783ZM91.333 15.4307C91.6406 13.2334 92.7979 11.6367 95.083 11.6367C97.1045 11.6367 98.3789 12.8525 98.6719 14.5078C98.7451 14.8008 98.7744 15.1084 98.7598 15.4307H91.333ZM110.347 9.08789C107.563 9.08789 105.747 10.2891 104.341 12.2373L106.655 13.9072C107.402 12.6914 108.604 11.7393 110.361 11.7393C112.925 11.7393 113.701 12.8525 113.76 15.3721H109.688C106.26 15.3721 103.77 16.4707 103.77 19.5908C103.77 22.5645 105.996 24.2783 108.999 24.2783C110.83 24.2783 112.822 23.4287 113.804 21.7148L114.009 24H116.514V15.0938C116.514 11.4902 114.258 9.08789 110.347 9.08789ZM109.6 21.7002C107.798 21.7002 106.875 20.8799 106.875 19.6787C106.875 18.4775 107.827 17.5693 109.863 17.5693H113.76V18.0234C113.452 20.001 111.973 21.7002 109.6 21.7002ZM123.545 24.2783C124.307 24.2783 125.288 24.1465 126.006 24L125.991 21.4512C125.596 21.5098 125.186 21.5537 124.937 21.5537C123.97 21.5537 123.618 21.041 123.618 20.2061V3.30176H120.601V21.0264C120.601 23.4434 121.729 24.2783 123.545 24.2783ZM145.327 24.2783C152.036 24.2783 155.156 19.2832 155.156 13.6436C155.156 8.00391 152.036 3.02344 145.327 3.02344C138.618 3.02344 135.498 8.00391 135.498 13.6436C135.498 19.2832 138.618 24.2783 145.327 24.2783ZM145.327 21.4805C140.64 21.4805 138.823 17.833 138.823 13.6436C138.823 9.46875 140.64 5.82129 145.327 5.82129C150.015 5.82129 151.831 9.46875 151.831 13.6436C151.831 17.833 150.015 21.4805 145.327 21.4805ZM158.892 24H161.909V15.7822C161.909 13.1309 163.286 11.8857 165.454 11.8857C167.461 11.8857 168.53 13.3359 168.53 15.5039V24H171.548V15.0498C171.533 11.959 169.995 9.08789 166.304 9.08789C164.692 9.08789 162.993 9.77637 161.909 11.3291V9.36621H158.892V24ZM178.594 24.2783C179.355 24.2783 180.337 24.1465 181.055 24L181.04 21.4512C180.645 21.5098 180.234 21.5537 179.985 21.5537C179.019 21.5537 178.667 21.041 178.667 20.2061V3.30176H175.649V21.0264C175.649 23.4434 176.777 24.2783 178.594 24.2783ZM183.955 6.49512H187.119V3.30176H183.955V6.49512ZM184.028 24H187.046V9.36621H184.028V24ZM191.646 24H194.663V15.7822C194.663 13.1309 196.04 11.8857 198.208 11.8857C200.215 11.8857 201.284 13.3359 201.284 15.5039V24H204.302V15.0498C204.287 11.959 202.749 9.08789 199.058 9.08789C197.446 9.08789 195.747 9.77637 194.663 11.3291V9.36621H191.646V24ZM214.453 24.2783C216.87 24.2783 218.716 23.458 220.327 21.7002L218.247 19.8691C217.119 21.085 215.933 21.5244 214.468 21.5244C211.948 21.5244 210.688 20.001 210.425 17.6279H220.723C220.781 17.4229 220.84 16.8223 220.84 16.2656C220.84 13.1162 219.229 9.08789 214.204 9.08789C209.487 9.08789 207.231 12.8232 207.231 16.749C207.231 20.7627 209.619 24.2783 214.453 24.2783ZM210.425 15.4307C210.732 13.2334 211.89 11.6367 214.175 11.6367C216.196 11.6367 217.471 12.8525 217.764 14.5078C217.837 14.8008 217.866 15.1084 217.852 15.4307H210.425ZM237.583 24.2783C241.992 24.2783 244.951 20.8066 244.951 16.6465C244.951 12.501 241.992 9.08789 237.583 9.08789C233.174 9.08789 230.229 12.501 230.229 16.6465C230.229 20.8213 233.174 24.2783 237.583 24.2783ZM237.583 21.6562C234.727 21.6562 233.379 19.3418 233.379 16.6465C233.379 13.9658 234.727 11.71 237.583 11.71C240.439 11.71 241.802 13.9805 241.802 16.6465C241.802 19.3271 240.439 21.6562 237.583 21.6562ZM248.218 24H251.235V15.7822C251.235 13.1309 252.612 11.8857 254.78 11.8857C256.787 11.8857 257.856 13.3359 257.856 15.5039V24H260.874V15.0498C260.859 11.959 259.321 9.08789 255.63 9.08789C254.019 9.08789 252.319 9.77637 251.235 11.3291V9.36621H248.218V24ZM276.826 24.2783C279.624 24.2783 282.363 22.7842 282.363 19.5469C282.363 14.0977 274.556 15.7529 274.556 13.0723C274.556 12.1641 275.435 11.4902 276.841 11.4902C278.496 11.4902 279.448 12.457 280.02 13.4971L282.363 12.2227C281.279 10.2598 279.39 9.08789 276.943 9.08789C274.131 9.08789 271.655 10.5381 271.655 13.4678C271.655 18.668 279.39 16.7344 279.39 19.6934C279.39 20.7188 278.511 21.7441 276.68 21.7441C274.629 21.7441 273.618 20.3965 273.179 19.1807L270.747 20.25C271.479 22.4912 273.809 24.2783 276.826 24.2783ZM285.879 24H288.911V15.7529C288.911 13.5996 290.186 11.915 292.295 11.915C294.316 11.915 295.02 13.4092 295.02 15.4453V24H298.052V15.7529C298.052 13.5996 299.326 11.915 301.406 11.915C303.486 11.915 304.16 13.4531 304.16 15.665V24H307.192V15.2842C307.192 11.9736 305.654 9.08789 302.007 9.08789C300.103 9.08789 298.345 9.9082 297.275 11.8857C296.484 9.83496 294.712 9.08789 292.896 9.08789C291.24 9.08789 289.688 9.71777 288.779 11.4316V9.36621H285.864L285.879 24ZM316.626 9.08789C313.843 9.08789 312.026 10.2891 310.62 12.2373L312.935 13.9072C313.682 12.6914 314.883 11.7393 316.641 11.7393C319.204 11.7393 319.98 12.8525 320.039 15.3721H315.967C312.539 15.3721 310.049 16.4707 310.049 19.5908C310.049 22.5645 312.275 24.2783 315.278 24.2783C317.109 24.2783 319.102 23.4287 320.083 21.7148L320.288 24H322.793V15.0938C322.793 11.4902 320.537 9.08789 316.626 9.08789ZM315.879 21.7002C314.077 21.7002 313.154 20.8799 313.154 19.6787C313.154 18.4775 314.106 17.5693 316.143 17.5693H320.039V18.0234C319.731 20.001 318.252 21.7002 315.879 21.7002ZM326.968 24H329.883V17.3936C329.883 13.585 331.816 12.0322 333.589 12.0322C334.16 12.0322 334.717 12.208 335.2 12.5156L336.577 10.0254C335.903 9.38086 334.951 9.08789 334.043 9.08789C332.358 9.08789 330.571 10.084 329.912 12.0322V9.36621H326.968V24ZM344.429 24.2783C345.41 24.2783 346.377 24.0586 346.89 23.8682L346.875 21.1289C346.421 21.334 345.674 21.5977 344.956 21.5977C343.813 21.5977 343.081 21.041 343.081 19.415V11.915H346.89V9.36621H343.081V3.36035L340.107 5.52832V9.36621H337.661V11.915H340.063V19.9277C340.063 22.6377 341.66 24.2783 344.429 24.2783ZM360.19 24H362.93L366.196 13.6143L369.434 24H372.188L376.641 9.36621H373.403L370.649 19.3711L367.5 9.36621H364.878L361.729 19.3857L358.989 9.36621H355.767L360.19 24ZM384.448 9.08789C381.665 9.08789 379.849 10.2891 378.442 12.2373L380.757 13.9072C381.504 12.6914 382.705 11.7393 384.463 11.7393C387.026 11.7393 387.803 12.8525 387.861 15.3721H383.789C380.361 15.3721 377.871 16.4707 377.871 19.5908C377.871 22.5645 380.098 24.2783 383.101 24.2783C384.932 24.2783 386.924 23.4287 387.905 21.7148L388.11 24H390.615V15.0938C390.615 11.4902 388.359 9.08789 384.448 9.08789ZM383.701 21.7002C381.899 21.7002 380.977 20.8799 380.977 19.6787C380.977 18.4775 381.929 17.5693 383.965 17.5693H387.861V18.0234C387.554 20.001 386.074 21.7002 383.701 21.7002ZM399.624 24.2783C400.605 24.2783 401.572 24.0586 402.085 23.8682L402.07 21.1289C401.616 21.334 400.869 21.5977 400.151 21.5977C399.009 21.5977 398.276 21.041 398.276 19.415V11.915H402.085V9.36621H398.276V3.36035L395.303 5.52832V9.36621H392.856V11.915H395.259V19.9277C395.259 22.6377 396.855 24.2783 399.624 24.2783ZM411.079 24.2783C413.921 24.2783 416.133 22.6963 417.085 20.0303L414.331 18.9902C413.877 20.5137 412.646 21.5244 411.05 21.5244C408.34 21.5244 407.241 19.1953 407.241 16.7051C407.241 14.2588 408.354 11.8418 411.05 11.8418C412.646 11.8418 413.862 12.8818 414.36 14.4199L417.231 13.3066C416.133 10.4941 413.877 9.08789 411.05 9.08789C406.406 9.08789 404.165 12.8672 404.165 16.7051C404.165 20.6748 406.494 24.2783 411.079 24.2783ZM420.22 24H423.296V16.2803C423.296 13.7314 424.512 11.8418 426.899 11.8418C429.199 11.8418 429.858 13.4238 429.858 15.5039V24H432.935V15.0498C432.905 11.959 431.323 9.08789 427.632 9.08789C426.021 9.08789 424.38 9.77637 423.296 11.3291V3.30176H420.22V24ZM443.086 24.2783C445.503 24.2783 447.349 23.458 448.96 21.7002L446.88 19.8691C445.752 21.085 444.565 21.5244 443.101 21.5244C440.581 21.5244 439.321 20.001 439.058 17.6279H449.355C449.414 17.4229 449.473 16.8223 449.473 16.2656C449.473 13.1162 447.861 9.08789 442.837 9.08789C438.12 9.08789 435.864 12.8232 435.864 16.749C435.864 20.7627 438.252 24.2783 443.086 24.2783ZM439.058 15.4307C439.365 13.2334 440.522 11.6367 442.808 11.6367C444.829 11.6367 446.104 12.8525 446.396 14.5078C446.47 14.8008 446.499 15.1084 446.484 15.4307H439.058ZM457.207 24.2783C460.005 24.2783 462.744 22.7842 462.744 19.5469C462.744 14.0977 454.937 15.7529 454.937 13.0723C454.937 12.1641 455.815 11.4902 457.222 11.4902C458.877 11.4902 459.829 12.457 460.4 13.4971L462.744 12.2227C461.66 10.2598 459.771 9.08789 457.324 9.08789C454.512 9.08789 452.036 10.5381 452.036 13.4678C452.036 18.668 459.771 16.7344 459.771 19.6934C459.771 20.7188 458.892 21.7441 457.061 21.7441C455.01 21.7441 453.999 20.3965 453.56 19.1807L451.128 20.25C451.86 22.4912 454.189 24.2783 457.207 24.2783Z" fill="white"/>
<path d="M10.1514 150.278C15.5127 150.278 17.915 147.056 17.915 141.885V129.302H14.7656V141.65C14.7656 145.225 13.6377 147.231 10.1514 147.231C6.67969 147.231 5.56641 145.239 5.56641 141.68V129.302H2.41699V142.031C2.41699 147.07 4.79004 150.278 10.1514 150.278ZM23.2031 150H26.3379V141.255H29.4287C33.6475 141.255 36.6211 139.146 36.6211 135.337C36.6211 131.499 33.6328 129.302 29.4287 129.302H23.2031V150ZM26.3379 138.311V132.246H29.4287C32.1826 132.246 33.501 133.374 33.501 135.337C33.501 137.271 32.2266 138.311 29.4287 138.311H26.3379ZM52.1045 150.278C53.0859 150.278 54.0527 150.059 54.5654 149.868L54.5508 147.129C54.0967 147.334 53.3496 147.598 52.6318 147.598C51.4893 147.598 50.7568 147.041 50.7568 145.415V137.915H54.5654V135.366H50.7568V129.36L47.7832 131.528V135.366H45.3369V137.915H47.7393V145.928C47.7393 148.638 49.3359 150.278 52.1045 150.278ZM63.9111 150.278C68.3203 150.278 71.2793 146.807 71.2793 142.646C71.2793 138.501 68.3203 135.088 63.9111 135.088C59.502 135.088 56.5576 138.501 56.5576 142.646C56.5576 146.821 59.502 150.278 63.9111 150.278ZM63.9111 147.656C61.0547 147.656 59.707 145.342 59.707 142.646C59.707 139.966 61.0547 137.71 63.9111 137.71C66.7676 137.71 68.1299 139.98 68.1299 142.646C68.1299 145.327 66.7676 147.656 63.9111 147.656ZM88.1982 150.278C91.9922 150.278 95.6104 148.257 95.6104 144.082C95.6104 141.724 94.4238 139.834 92.3145 138.794C93.6768 137.856 94.541 136.333 94.541 134.531C94.541 131.089 91.5527 129.023 88.2129 129.023C84.9756 129.023 81.8848 131.001 81.8848 134.517C81.8848 136.274 82.6758 137.798 84.0967 138.794C82.0898 139.79 80.7861 141.665 80.7861 144.111C80.7861 148.228 84.3896 150.278 88.1982 150.278ZM88.2715 137.886C86.2793 137.886 84.9902 136.611 84.9902 134.678C84.9902 132.656 86.5283 131.646 88.2568 131.646C90.1465 131.646 91.5381 132.817 91.5381 134.78C91.5381 136.714 90.1611 137.886 88.2715 137.886ZM88.1836 147.568C85.8838 147.568 83.8623 146.353 83.8623 143.76C83.8623 141.372 85.6641 139.951 88.1836 139.951C90.6592 139.951 92.4902 141.372 92.4902 143.789C92.4902 146.353 90.5127 147.568 88.1836 147.568ZM105.542 150.278C110.962 150.278 112.559 144.844 112.559 139.688C112.559 134.502 110.903 128.994 105.337 128.994C99.2139 128.994 98.3057 135.205 98.3057 139.644C98.3057 144.067 99.2725 150.278 105.542 150.278ZM105.469 147.305C101.777 147.305 101.396 143.159 101.396 139.644C101.396 136.113 101.777 132.026 105.337 132.026C108.823 132.026 109.307 135.981 109.307 139.629C109.307 143.203 108.853 147.305 105.469 147.305ZM119.561 138.516C121.89 138.516 123.604 136.479 123.604 133.784C123.604 131.06 121.86 129.023 119.473 129.023C116.953 129.023 115.386 131.147 115.386 133.755C115.386 136.392 116.982 138.516 119.561 138.516ZM117.437 150H119.59L131.792 129.302H129.639L117.437 150ZM119.561 136.465C118.169 136.465 117.437 135.278 117.437 133.755C117.437 132.261 118.14 131.074 119.473 131.074C120.762 131.074 121.553 132.231 121.553 133.784C121.553 135.352 120.718 136.465 119.561 136.465ZM129.785 150.278C132.114 150.278 133.828 148.242 133.828 145.547C133.828 142.822 132.085 140.786 129.697 140.786C127.178 140.786 125.61 142.91 125.61 145.518C125.61 148.154 127.207 150.278 129.785 150.278ZM129.785 148.228C128.394 148.228 127.661 147.041 127.661 145.518C127.661 144.009 128.364 142.837 129.697 142.837C130.986 142.837 131.777 143.994 131.777 145.547C131.777 147.114 130.942 148.228 129.785 148.228ZM153.97 150.278C160.679 150.278 163.799 145.283 163.799 139.644C163.799 134.004 160.679 129.023 153.97 129.023C147.261 129.023 144.141 134.004 144.141 139.644C144.141 145.283 147.261 150.278 153.97 150.278ZM153.97 147.48C149.282 147.48 147.466 143.833 147.466 139.644C147.466 135.469 149.282 131.821 153.97 131.821C158.657 131.821 160.474 135.469 160.474 139.644C160.474 143.833 158.657 147.48 153.97 147.48ZM168.105 150H171.255V141.079H181.201V138.179H171.255V132.202H182.549V129.302H168.105V150ZM186.328 150H189.478V141.079H199.424V138.179H189.478V132.202H200.771V129.302H186.328V150Z" fill="white"/>
</svg>
